<svg xmlns="http://www.w3.org/2000/svg" viewBox="0 0 112.44 112.44"><defs><style>.cls-1{fill:#fff;}.cls-2{fill:#2c378f;}</style></defs><g id="grid"><rect class="cls-1" x="3.01" y="1.05" width="109.43" height="109.43"/></g><g id="icons"><path class="cls-2" d="M27.34,50.28l.42,0a2.85,2.85,0,0,0,2.81-2.43A22.75,22.75,0,0,1,41.09,31.8L42,33.86a1.82,1.82,0,0,0,3.26.12l4-7.46a1.81,1.81,0,0,0-1.2-2.64L39.84,22a1.82,1.82,0,0,0-2.05,2.53l.93,2.06A28.42,28.42,0,0,0,24.93,47.05,2.85,2.85,0,0,0,27.34,50.28Zm12.15,3.21A23.94,23.94,0,1,0,63.42,77.43,23.94,23.94,0,0,0,39.49,53.49Z"/><path class="cls-2" d="M78.24,12.45a23.94,23.94,0,1,0,23.94,23.94A23.94,23.94,0,0,0,78.24,12.45ZM76.68,31.8l5.26,2.71a7.57,7.57,0,0,1,4,8.05,7.38,7.38,0,0,1-4.56,5.75v.95a2.85,2.85,0,0,1-5.7,0V48.5a9.15,9.15,0,0,1-5.8-5.15,2.85,2.85,0,0,1,5.23-2.27,3.43,3.43,0,0,0,3.51,2.09l.24,0a1.69,1.69,0,0,0,1.45-1.48,1.93,1.93,0,0,0-1-2.08l-5.27-2.71a7.6,7.6,0,0,1-4-8.21,7.38,7.38,0,0,1,5.66-5.95v-.8a2.85,2.85,0,0,1,5.7,0v1.43A9.1,9.1,0,0,1,86.07,28a2.85,2.85,0,0,1-5.22,2.27,3.44,3.44,0,0,0-3.52-2.09,1.78,1.78,0,0,0-1.66,1.51A1.9,1.9,0,0,0,76.68,31.8ZM91.53,64.68a2.85,2.85,0,0,0-3.23,2.4A22.92,22.92,0,0,1,77.72,83.15l-1.17-2.37a1.82,1.82,0,0,0-3.26,0l-3.8,7.58a1.81,1.81,0,0,0,1.28,2.6l8.32,1.62a1.82,1.82,0,0,0,2-2.59l-.82-1.68A28.58,28.58,0,0,0,93.93,67.91,2.84,2.84,0,0,0,91.53,64.68Z"/><path class="cls-1" d="M33.47,92.11c.59-.21,1.17-.4,1.73-.63A9.56,9.56,0,0,0,39,88.77a6.58,6.58,0,0,0-3.68-10.66l-.27,0a7.38,7.38,0,0,0,.88-.2,5.05,5.05,0,0,0,2.38-1.74A7.23,7.23,0,0,0,40,71.68a5.9,5.9,0,0,0-2.62-5.13,10.61,10.61,0,0,0-3.91-1.67c-.76-.18-1.54-.29-2.31-.44a1.48,1.48,0,0,1,.13-.08A15.13,15.13,0,0,1,37,62.46a15.46,15.46,0,0,1,5.43,30.4,14.5,14.5,0,0,1-8.85-.7l-.09,0"/><path class="cls-1" d="M27.33,76.06H24c-.13,0-.17,0-.17-.18a9.62,9.62,0,0,1,.34-2.07,14,14,0,0,1,2.26-5,1.4,1.4,0,0,0,.15-.24.83.83,0,0,1,.83-.53c.78,0,1.56,0,2.33,0a16.79,16.79,0,0,1,1.88.1,4.43,4.43,0,0,1,3.73,2.68,3.28,3.28,0,0,1-1.08,4.06,5.9,5.9,0,0,1-2.53,1,11.84,11.84,0,0,1-2.45.17c-.64,0-1.29,0-1.93,0Z"/><path class="cls-1" d="M27.37,79.52c.6,0,1.2,0,1.79,0a9.67,9.67,0,0,1,4,.56,4.18,4.18,0,0,1,1.78,1.26,3.24,3.24,0,0,1,.28,3.73A4.36,4.36,0,0,1,32,87.38a9.11,9.11,0,0,1-1.65.14c-.9,0-1.79,0-2.69,0-.15,0-.3,0-.45,0a.67.67,0,0,1-.53-.32c-.36-.56-.73-1.11-1.06-1.69a14.94,14.94,0,0,1-1.74-5.16,4.3,4.3,0,0,1,0-.62c0-.13,0-.17.16-.17h3.39Z"/></g></svg>