<svg xmlns="http://www.w3.org/2000/svg" viewBox="0 0 112.44 112.44"><defs><style>.cls-1{fill:#fff;}.cls-2{fill:#2c378f;}</style></defs><g id="grid"><rect class="cls-1" x="5.62" y="5.05" width="100.81" height="100.81"/></g><g id="icons"><path class="cls-2" d="M87.52,26.05H26.62a4.21,4.21,0,0,0-4.2,4.21v12.6a4.2,4.2,0,0,0,4.2,4.2h60.9a4.2,4.2,0,0,0,4.2-4.2V30.26A4.21,4.21,0,0,0,87.52,26.05ZM35,40.76a4.2,4.2,0,1,1,4.2-4.2A4.2,4.2,0,0,1,35,40.76Zm14.7,0a4.2,4.2,0,1,1,4.2-4.2A4.2,4.2,0,0,1,49.72,40.76Zm32.55-1.58H65.47a2.63,2.63,0,1,1,0-5.25h16.8a2.63,2.63,0,1,1,0,5.25Zm5.25,14.18H26.62a4.2,4.2,0,0,0-4.2,4.2v12.6a4.2,4.2,0,0,0,4.2,4.2h60.9a4.2,4.2,0,0,0,4.2-4.2V57.56A4.2,4.2,0,0,0,87.52,53.36ZM35,68.06a4.2,4.2,0,1,1,4.2-4.2A4.2,4.2,0,0,1,35,68.06Zm14.7,0a4.2,4.2,0,1,1,4.2-4.2A4.2,4.2,0,0,1,49.72,68.06Zm32.55-1.58H65.47a2.63,2.63,0,1,1,0-5.25h16.8a2.63,2.63,0,1,1,0,5.25Z"/><path class="cls-2" d="M83.32,80.66H30.82a3.15,3.15,0,1,0,0,6.3h52.5a3.15,3.15,0,1,0,0-6.3Z"/></g></svg>