<svg xmlns="http://www.w3.org/2000/svg" viewBox="0 0 112.44 112.44"><defs><style>.cls-1{fill:#fff;}.cls-2{fill:#2c378f;}</style></defs><g id="grid"><rect class="cls-1" x="5.22" y="4.05" width="101.13" height="101.13"/></g><g id="icons"><path class="cls-2" d="M64.57,49.45a4,4,0,0,0-.33-1.19,1.29,1.29,0,0,0-.09-.16A3.83,3.83,0,0,0,63.39,47a15.45,15.45,0,0,0-21.84,0L27,61.57A15.44,15.44,0,0,0,48.83,83.41l8.57-8.57a21.45,21.45,0,0,1-8.47-3.45l-6.06,6.06a7.18,7.18,0,0,1-9.92,0,7,7,0,0,1,0-9.92l8-8h0L47.51,53a7,7,0,0,1,2.29-1.53,8,8,0,0,1,1.35-.4h0A7,7,0,0,1,57.43,53a4.2,4.2,0,0,0,7.07-2s0,0,0-.05a3.89,3.89,0,0,0,.08-1.27A1.37,1.37,0,0,0,64.57,49.45Z"/><path class="cls-2" d="M86.67,27.94a15.45,15.45,0,0,0-21.84,0l-8.58,8.58A21.63,21.63,0,0,1,64.73,40l6.06-6.06a7.18,7.18,0,0,1,9.92,0,7,7,0,0,1,0,9.92L78,46.5h0L66.16,58.38a7.2,7.2,0,0,1-9.93,0,4.21,4.21,0,1,0-5.95,6,15.44,15.44,0,0,0,21.83,0L84,52.46h0l2.67-2.67a15.43,15.43,0,0,0,0-21.84Z"/></g></svg>