<svg xmlns="http://www.w3.org/2000/svg" viewBox="0 0 112.44 112.44"><defs><style>.cls-1{fill:#fff;}.cls-2{fill:#2c378f;}</style></defs><g id="grid"><rect class="cls-1" x="4.86" y="4.05" width="101.64" height="101.64"/></g><g id="icons"><path class="cls-2" d="M53.3,53a1.6,1.6,0,0,0-1.59-1.59H45.89v3.18h5.82A1.59,1.59,0,0,0,53.3,53ZM33.45,37.45v54.2a1.86,1.86,0,0,0,2.76,1.64L40.33,91a1.89,1.89,0,0,1,1.79,0l6,3.27a1.87,1.87,0,0,0,1.78,0l6-3.27a1.89,1.89,0,0,1,1.79,0l6,3.26a1.84,1.84,0,0,0,1.79,0l6-3.26a1.89,1.89,0,0,1,1.79,0l4.1,2.24A1.85,1.85,0,0,0,80,91.65V37.45Zm39.17,45H43a2.65,2.65,0,1,1,0-5.29H72.62a2.65,2.65,0,1,1,0,5.29Zm0-10.59H66.27a2.65,2.65,0,0,1,0-5.29h6.35a2.65,2.65,0,1,1,0,5.29Zm0-10.58H66.27a2.65,2.65,0,0,1,0-5.3h6.35a2.65,2.65,0,0,1,0,5.3Zm0-10.59H66.27a2.65,2.65,0,0,1,0-5.29h6.35a2.65,2.65,0,1,1,0,5.29Z"/><path class="cls-2" d="M88.5,17.33H25a8.47,8.47,0,0,0-8.47,8.47V40.62A8.47,8.47,0,0,0,25,49.09H26A1.06,1.06,0,0,0,27.1,48V33.21a1.06,1.06,0,0,1,1.06-1.06H85.33a1.07,1.07,0,0,1,1.06,1.06V48a1.05,1.05,0,0,0,1,1.06H88.5A8.47,8.47,0,0,0,97,40.62V25.8A8.47,8.47,0,0,0,88.5,17.33Z"/></g></svg>