<svg xmlns="http://www.w3.org/2000/svg" viewBox="0 0 112.44 112.44"><defs><style>.cls-1{fill:#2c378f;}.cls-2{fill:#fff;}</style></defs><g id="icons"><path class="cls-1" d="M82.71,37.38H76.32v3.48h6.39a1.74,1.74,0,0,0,0-3.48Zm-2.32-23.8a20.9,20.9,0,1,0,20.89,20.9A20.9,20.9,0,0,0,80.39,13.58Zm2.32,14.51H76.32v3.49h6.39a1.75,1.75,0,0,0,0-3.49Z"/><path class="cls-1" d="M78.26,62.78a6.52,6.52,0,0,0-5,1.55A5.45,5.45,0,0,0,69,60.46a6.39,6.39,0,0,0-4.81,1.39,6,6,0,0,0-4.48-3.71,6.49,6.49,0,0,0-5.42,2V45.5a4.76,4.76,0,0,0-3.13-4.6A4.66,4.66,0,0,0,45,45.3V82.45a4.64,4.64,0,0,1-4.64-4.64v-4.2A1.61,1.61,0,0,0,38.73,72h-1.4a6.28,6.28,0,0,0-6.28,6.28V89.74A7,7,0,0,0,33.43,95l6.25,5.48a7,7,0,0,0,4.59,1.72H70a7,7,0,0,0,4.92-2l5.21-5.2a7,7,0,0,0,2-4.93V67.61A4.81,4.81,0,0,0,78.26,62.78ZM39.18,58.07H33.37a2.32,2.32,0,0,1-2.32-2.32V27.89a2.32,2.32,0,0,1,2.32-2.32H55.25a26.46,26.46,0,0,1,3.72-7H21.76a9.28,9.28,0,0,0-9.28,9.28V55.75A9.29,9.29,0,0,0,21.76,65H39.18ZM23.6,45.73a3.91,3.91,0,1,1,3.91-3.91A3.91,3.91,0,0,1,23.6,45.73Z"/><path class="cls-2" d="M75.19,45.88c.51-.19,1-.35,1.49-.54A8.29,8.29,0,0,0,80,43a5.66,5.66,0,0,0-3.16-9.17l-.23,0a7.39,7.39,0,0,0,.75-.18,4.36,4.36,0,0,0,2-1.49,6.26,6.26,0,0,0,1.45-3.83,5.06,5.06,0,0,0-2.25-4.4,8.86,8.86,0,0,0-3.37-1.44c-.65-.15-1.32-.25-2-.38l.11-.07A13.2,13.2,0,0,1,92.8,30.7a13.28,13.28,0,0,1-9.92,15.82,12.48,12.48,0,0,1-7.61-.6l-.08,0"/><path class="cls-2" d="M69.91,32.07H67c-.11,0-.14,0-.14-.16a7.61,7.61,0,0,1,.29-1.78,11.78,11.78,0,0,1,1.94-4.26,1.2,1.2,0,0,0,.13-.21A.72.72,0,0,1,70,25.2c.66,0,1.33,0,2,0a12.32,12.32,0,0,1,1.61.09,3.8,3.8,0,0,1,3.21,2.3,2.82,2.82,0,0,1-.93,3.49,5.22,5.22,0,0,1-2.18.89,10.5,10.5,0,0,1-2.1.14c-.55,0-1.11,0-1.66,0Z"/><path class="cls-2" d="M70,35.05c.51,0,1,0,1.54,0a8.19,8.19,0,0,1,3.4.48,3.48,3.48,0,0,1,1.53,1.09,2.77,2.77,0,0,1,.24,3.2,3.73,3.73,0,0,1-2.75,2,8.42,8.42,0,0,1-1.42.12c-.77,0-1.54,0-2.31,0-.13,0-.26,0-.39,0a.57.57,0,0,1-.45-.28c-.31-.48-.63-1-.91-1.44a13,13,0,0,1-1.51-4.44c0-.18,0-.36,0-.54s0-.14.14-.14H70Z"/></g></svg>