<svg xmlns="http://www.w3.org/2000/svg" viewBox="0 0 112.44 112.44"><defs><style>.cls-1{fill:#fff;}.cls-2{fill:#2c378f;}</style></defs><g id="grid"><rect class="cls-1" x="5.2" y="4.52" width="102.04" height="102.04"/></g><g id="icons"><path class="cls-2" d="M58,30.53a6.38,6.38,0,1,0-1.71-8.86A6.38,6.38,0,0,0,58,30.53ZM43,45a16,16,0,0,1,3.26-3.5l-5.1-4.25a9.48,9.48,0,1,0-4.79,4.31l5.79,4.82A14.12,14.12,0,0,1,43,45Zm6.1,23.19L46.06,79.66a7.44,7.44,0,1,0,6.23,1.41l3-11.25A15.87,15.87,0,0,1,49.12,68.2ZM74.5,49.53,67.2,50a11.69,11.69,0,1,0,.44,6.36l7.28-.49A13.8,13.8,0,0,1,74.5,49.53Z"/><path class="cls-2" d="M31.82,56.65a9.56,9.56,0,1,0,2.56,13.28A9.57,9.57,0,0,0,31.82,56.65ZM93.47,43.9a9.55,9.55,0,0,0-13.28,2.55A9.57,9.57,0,1,0,93.47,43.9Z"/></g></svg>